{"title":"The Hiding Place 2011 DVDRip Xvid-UnKnOwN","uid":6633404,"size":957945185,"categoryP":"video","categoryS":"movies","magnet":"?xt=urn:btih:ae694ed1ee53adaecf8ffbe7810b08d1ce848b33&amp;dn=+The+Hiding+Place+2011+DVDRip+Xvid-UnKnOwN&amp;tr=udp%3A%2F%2Ftracker.openbittorrent.com%3A80&amp;tr=udp%3A%2F%2Fopen.demonii.com%3A1337&amp;tr=udp%3A%2F%2Ftracker.coppersurfer.tk%3A6969&amp;tr=udp%3A%2F%2Fexodus.desync.com%3A6969","seeders":0,"leechers":0,"uploader":"SnowCrash03","files":-1,"time":1314446319,"description":"Encoded By .......:UnKnOwN\nRuntime ..........:2:00\nIMDb URL .........:http://www.imdb.com/title/tt1691153/\nLanguage .........:English\nFile Size ........:913mb\nRelease Date ......... 2011\nSource ......... r2\nFile Type ......... Single AVI\nPS3 Compatible ....... Go for It\nGenre ......... Thriller/Action\n-\nVideo\nID : 0\nFormat : MPEG-4 Visual\nFormat profile : Advanced Simple@L5\nFormat settings, BVOP : Yes\nFormat settings, QPel : No\nFormat settings, GMC : No warppoints\nFormat settings, Matrix : Custom\nCodec ID : XVID\nCodec ID/Hint : XviD\nDuration : 2h 00mn\nBit rate : 998 Kbps\nWidth : 680pixels\nHeight : 348pixels\nDisplay aspect ratio : 1.9.5\nFrame rate : 29.997fps\nColor space : YUV\nChroma subsampling : 4:2:0\nBit depth : 8 bits\nScan type : Progressive\nBits/(Pixel*Frame) : 0.234\nStream size : 892 MiB (86%)\nWriting library : XviD 1.2.1 (UTC 2008-12-04)\n\nAudio\nID : 1\nFormat : AC3\nFormat/Info : Version 1\nMode extension : AC3\nCodec ID : 2000\nDuration : 2h 00mn\nBit rate mode : Constant\nBit rate : 224Kbps\nChannel(s) : 2channels\nChannel positions : Front: L R\nSampling rate : 48.0 KHz\nBit depth : 16 bits\nStream size : 302 MiB\nAlignment : Aligned on interleaves\nInterleave, duration : 42 ms (1.00 video frame)\nInterleave, preload duration : 512 ms\n-\nSYSPNOSIS\nWhen the Nazis begin killing Jews in Holland, a group of youth fight to save\nthe lives of the innocent.\n\n-\n\nRELEASE INFO\n\nAKA War of Resistance\n","torrent":{"xt":"urn:btih:ae694ed1ee53adaecf8ffbe7810b08d1ce848b33","amp;dn":"+The+Hiding+Place+2011+DVDRip+Xvid-UnKnOwN","amp;tr":["udp%3A%2F%2Ftracker.openbittorrent.com%3A80","udp%3A%2F%2Fopen.demonii.com%3A1337","udp%3A%2F%2Ftracker.coppersurfer.tk%3A6969","udp%3A%2F%2Fexodus.desync.com%3A6969"],"infoHash":"ae694ed1ee53adaecf8ffbe7810b08d1ce848b33","infoHashBuffer":{"type":"Buffer","data":[174,105,78,209,238,83,173,174,207,143,251,231,129,11,8,209,206,132,139,51]},"announce":[],"urlList":[]}}